<svg width="667" height="667" viewBox="0 0 667 667" fill="none" xmlns="http://www.w3.org/2000/svg">
<mask id="mask0_243_84" style="mask-type:luminance" maskUnits="userSpaceOnUse" x="0" y="0" width="667" height="667">
<path d="M666.67 0H0V666.67H666.67V0Z" fill="white"/>
</mask>
<g mask="url(#mask0_243_84)">
<path d="M625 297.572C652.614 297.572 671.215 320.749 652.152 340.727C623.7 370.546 576.766 399.071 559.734 424.56C534.616 462.148 498.914 491.445 457.145 508.745C415.375 526.045 369.413 530.571 325.07 521.752C280.728 512.932 239.996 491.163 208.027 459.197C176.058 427.23 154.287 386.503 145.466 342.164C136.646 297.826 141.173 251.867 158.475 210.101C175.776 168.335 205.075 132.637 242.667 107.521C266.316 91.7211 292.579 80.5553 320.063 74.4461C347.02 68.4543 369.666 91.3858 369.666 119V133.286C369.666 160.9 346.259 182.351 321.245 194.049C316.033 196.486 310.991 199.323 306.167 202.547C287.371 215.105 272.721 232.954 264.07 253.837C255.42 274.72 253.156 297.699 257.566 319.868C261.977 342.037 272.862 362.401 288.847 378.384C304.831 394.368 325.197 405.252 347.368 409.662C369.539 414.072 392.521 411.808 413.405 403.158C434.29 394.508 452.141 379.86 464.7 361.066C467.923 356.243 470.76 351.203 473.197 345.992C484.898 320.979 506.348 297.572 533.962 297.572H625Z" fill="#2D333A"/>
<path d="M441.509 297.572C441.509 337.246 409.344 369.409 369.666 369.409C329.988 369.409 297.823 337.246 297.823 297.572C297.823 257.898 329.988 225.735 369.666 225.735C409.344 225.735 441.509 257.898 441.509 297.572ZM340.929 297.572C340.929 313.442 353.795 326.307 369.666 326.307C385.537 326.307 398.403 313.442 398.403 297.572C398.403 281.702 385.537 268.837 369.666 268.837C353.795 268.837 340.929 281.702 340.929 297.572Z" fill="#2D333A"/>
<path d="M122.452 570.36C106.321 576.492 90.5155 560.689 96.6489 544.559L155.71 389.236C160.866 375.677 178.29 371.945 188.548 382.202L284.823 478.469C295.081 488.726 291.349 506.148 277.789 511.304L122.452 570.36Z" fill="#2D333A"/>
</g>
</svg>
