<?xml version="1.0" standalone="no"?>
<!DOCTYPE svg PUBLIC "-//W3C//DTD SVG 20010904//EN"
 "http://www.w3.org/TR/2001/REC-SVG-20010904/DTD/svg10.dtd">
<svg version="1.0" xmlns="http://www.w3.org/2000/svg"
 width="500.000000pt" height="500.000000pt" viewBox="0 0 500.000000 500.000000"
 preserveAspectRatio="xMidYMid meet">
<metadata>
Created by potrace 1.14, written by Peter Selinger 2001-2017
</metadata>
<g transform="translate(0.000000,500.000000) scale(0.100000,-0.100000)"
fill="#000000" stroke="none">
<path d="M2435 4670 c-11 -5 -74 -30 -140 -56 -66 -26 -149 -64 -183 -85 -35
-22 -66 -39 -68 -39 -2 0 -1 18 2 40 10 63 -16 64 -79 3 -78 -75 -94 -83 -161
-83 -40 0 -74 -7 -102 -21 -50 -24 -110 -86 -131 -136 l-14 -35 -88 7 c-70 5
-94 4 -118 -8 -35 -18 -138 -111 -296 -266 -96 -95 -121 -126 -137 -169 -36
-95 -51 -114 -210 -272 -127 -126 -163 -168 -193 -225 -51 -101 -82 -215 -117
-446 l-32 -202 61 -126 c64 -134 108 -270 118 -363 6 -58 6 -58 -21 -58 -26 0
-26 -1 -26 -75 0 -85 -1 -81 133 -385 76 -174 160 -383 183 -457 2 -7 9 -13
17 -13 28 0 59 -49 74 -116 23 -105 65 -185 127 -241 62 -57 107 -73 202 -73
89 0 121 -10 195 -59 67 -45 141 -71 201 -71 42 0 180 -65 327 -153 70 -42 87
-48 102 -38 17 10 19 8 19 -20 l0 -31 58 6 c31 3 138 9 237 12 148 5 195 3
265 -11 47 -9 92 -17 100 -16 8 0 40 1 70 3 47 2 68 -4 134 -35 93 -44 126
-48 126 -13 0 27 21 38 119 60 l64 14 45 -44 c25 -24 49 -41 54 -38 4 3 8 22
8 42 0 56 12 67 72 68 l53 0 2 44 c2 40 8 50 90 132 116 117 117 118 159 77
l34 -33 0 25 c0 14 -13 43 -30 65 -16 21 -30 44 -30 50 0 12 64 34 99 34 12 0
31 -4 41 -10 15 -8 17 -7 12 12 -7 30 22 48 79 48 39 0 51 5 68 26 12 15 21
38 21 52 0 15 17 45 43 76 79 93 166 216 221 314 52 93 170 351 164 358 -9 8
-103 -85 -139 -137 -34 -50 -44 -59 -70 -59 -25 0 -30 -5 -36 -32 -7 -32 -7
-33 -13 -7 -5 26 -8 24 -140 -79 -308 -238 -676 -492 -715 -492 -15 0 -31 10
-41 25 l-17 26 -27 -26 c-33 -32 -60 -33 -60 -2 0 18 -6 22 -33 25 -25 1 -37
-4 -54 -25 -19 -24 -23 -25 -29 -10 -10 28 -24 20 -24 -14 0 -26 -2 -29 -14
-19 -12 9 -17 7 -28 -9 -13 -21 -14 -20 -45 16 l-33 38 7 -33 c5 -27 3 -31
-11 -26 -12 5 -16 0 -16 -17 0 -16 -15 -36 -40 -57 -34 -28 -51 -34 -122 -43
-46 -5 -108 -15 -138 -22 -47 -11 -65 -11 -130 4 -119 28 -243 47 -404 64
-160 17 -261 44 -356 97 -30 17 -57 32 -59 34 -2 2 8 13 22 25 15 11 27 27 27
35 0 17 0 17 -36 0 -70 -35 -62 -40 -349 229 -269 251 -423 410 -467 481 -24
40 -51 98 -108 236 -29 72 -33 76 -51 65 -17 -10 -23 -9 -35 8 -8 11 -14 34
-12 50 2 24 8 30 26 29 27 -1 26 -10 2 154 -25 170 -25 171 9 250 25 59 32
100 59 352 35 319 55 408 127 556 79 162 191 298 442 529 103 96 148 129 290
213 410 243 510 278 809 290 208 8 214 12 214 104 0 54 -2 58 -23 58 -13 0
-44 15 -68 34 -49 38 -84 49 -114 36z m-1676 -2840 c22 -44 35 -80 30 -80 -18
0 -49 40 -49 63 0 12 -9 39 -19 60 -10 20 -15 37 -10 37 5 0 27 -36 48 -80z
m-85 46 c3 -13 9 -32 12 -43 4 -11 -4 -6 -20 12 -28 33 -33 55 -12 55 8 0 17
-11 20 -24z"/>
<path d="M3046 4517 c-23 -23 -31 -25 -79 -20 -98 10 -157 -26 -157 -94 0 -76
122 -154 270 -175 76 -10 95 -17 185 -71 111 -67 234 -150 499 -339 98 -70
188 -128 200 -128 12 0 41 9 65 20 52 24 55 24 47 4 -10 -26 13 -133 46 -211
24 -60 40 -82 90 -125 34 -29 67 -67 74 -85 16 -38 18 -104 4 -153 -9 -31 -6
-41 33 -109 23 -41 68 -100 100 -133 31 -32 57 -67 57 -77 0 -32 11 -51 30
-51 10 0 20 6 23 13 10 28 14 -2 6 -53 -11 -80 -11 -230 1 -230 6 0 10 20 10
44 0 63 36 261 59 329 23 65 15 72 -23 22 -15 -19 -31 -35 -35 -35 -4 0 -11
62 -14 138 -3 75 -15 205 -26 288 l-20 150 -218 350 c-183 294 -229 361 -293
425 -122 124 -288 222 -492 291 -85 28 -107 31 -255 36 l-162 4 -25 -25z"/>
<path d="M2271 3121 c-76 -20 -121 -81 -121 -165 0 -117 66 -176 199 -176 85
0 123 -16 141 -60 15 -36 29 -37 87 -9 29 14 52 35 68 63 22 37 25 55 25 135
0 111 -15 151 -73 189 -37 25 -48 27 -166 29 -69 1 -141 -2 -160 -6z m283
-103 c22 -19 26 -34 30 -88 3 -64 -13 -130 -32 -130 -5 0 -15 7 -23 16 -25 30
-65 42 -156 46 -114 5 -133 18 -133 88 0 47 13 73 40 83 8 3 68 6 132 6 108 1
119 -1 142 -21z"/>
<path d="M2717 2852 c-3 -4 -7 -24 -11 -44 -5 -30 -4 -38 8 -38 42 0 62 -99
27 -141 -16 -20 -31 -24 -122 -30 -57 -4 -105 -8 -106 -8 -1 -1 -18 -15 -37
-32 l-35 -30 -16 25 c-13 19 -16 43 -13 101 l3 76 -45 -3 -45 -3 -3 -62 c-5
-110 32 -189 105 -219 49 -21 70 -18 77 11 10 38 43 52 138 58 48 3 100 13
117 21 122 63 115 267 -11 315 -15 6 -29 7 -31 3z"/>
<path d="M2442 2371 c-8 -4 -12 -19 -10 -32 4 -30 46 -39 65 -14 25 35 -18 70
-55 46z"/>
<path d="M1540 2205 l0 -155 30 0 30 0 0 66 c0 80 11 104 48 104 43 0 52 -17
52 -97 l0 -73 30 0 30 0 0 89 c0 111 -15 135 -81 135 -24 0 -52 -3 -61 -8 -16
-7 -18 -2 -18 43 0 50 -1 51 -30 51 l-30 0 0 -155z"/>
<path d="M1300 2328 c-51 -27 -80 -74 -80 -134 0 -106 118 -174 224 -130 44
18 52 33 31 56 -16 17 -20 18 -38 5 -12 -8 -39 -15 -60 -15 -53 0 -87 35 -87
90 0 75 78 117 138 74 21 -15 25 -15 43 2 27 25 24 33 -23 54 -56 26 -94 25
-148 -2z"/>
<path d="M2993 2330 c-54 -24 -83 -70 -83 -131 0 -140 181 -202 279 -95 35 37
41 127 11 174 -23 37 -88 72 -135 72 -16 0 -49 -9 -72 -20z m119 -51 c26 -14
51 -74 42 -102 -12 -42 -45 -67 -88 -67 -56 0 -86 30 -86 87 0 74 67 117 132
82z"/>
<path d="M2087 2323 c-4 -3 -7 -17 -7 -30 0 -14 -6 -23 -15 -23 -9 0 -15 -9
-15 -25 0 -14 6 -25 14 -25 9 0 15 -20 19 -67 4 -53 10 -71 27 -85 23 -19 76
-24 99 -9 20 13 -2 45 -31 46 -21 0 -23 5 -26 58 -3 55 -2 57 23 57 20 0 25 5
25 25 0 20 -5 25 -25 25 -21 0 -25 5 -25 30 0 26 -4 30 -28 30 -16 0 -32 -3
-35 -7z"/>
<path d="M1848 2269 c-29 -11 -34 -24 -20 -47 7 -9 16 -10 41 -1 38 13 81 -1
81 -26 0 -11 -12 -15 -48 -15 -60 0 -92 -21 -92 -60 0 -52 57 -83 114 -62 21
8 32 9 37 1 3 -6 17 -9 30 -7 23 3 24 6 24 90 0 76 -3 90 -22 109 -25 25 -102
35 -145 18z m102 -139 c0 -28 -44 -48 -65 -30 -32 26 -15 48 38 49 21 1 27 -4
27 -19z"/>
<path d="M2260 2165 l0 -115 30 0 30 0 0 63 c0 69 17 104 53 109 17 2 21 8 19
28 -5 34 -8 35 -38 21 -19 -8 -30 -9 -38 -1 -5 5 -20 10 -33 10 -23 0 -23 -2
-23 -115z"/>
<path d="M2435 2267 c-3 -7 -4 -58 -3 -113 l3 -99 30 0 30 0 0 110 0 110 -28
3 c-16 2 -29 -2 -32 -11z"/>
<path d="M2540 2274 c0 -4 16 -28 35 -54 19 -26 35 -51 35 -54 0 -4 -16 -28
-35 -53 -19 -25 -35 -50 -35 -54 0 -5 13 -9 30 -9 23 0 35 8 52 35 13 19 25
35 28 35 3 0 15 -16 28 -35 19 -29 28 -35 58 -35 41 0 43 -8 -19 79 l-29 40
36 47 c20 26 36 51 36 55 0 5 -12 9 -27 9 -19 0 -36 -10 -54 -32 l-27 -32 -27
32 c-19 23 -35 32 -56 32 -16 0 -29 -3 -29 -6z"/>
<path d="M3270 2165 l0 -115 30 0 c30 0 30 0 30 58 0 75 16 106 57 110 37 4
41 -5 45 -103 3 -59 3 -60 33 -60 l30 0 0 88 c0 85 -1 90 -28 113 -30 26 -75
31 -110 13 -16 -9 -22 -9 -25 0 -2 6 -17 11 -33 11 l-29 0 0 -115z"/>
<path d="M3602 2265 c-21 -9 -38 -27 -47 -49 -19 -45 -19 -60 1 -101 27 -58
112 -82 175 -49 29 14 30 17 14 34 -13 15 -21 16 -50 7 -27 -8 -39 -7 -59 7
-44 28 -30 36 60 36 l86 0 -8 32 c-18 86 -88 119 -172 83z m96 -47 c26 -26 13
-38 -38 -38 -34 0 -50 4 -50 13 0 21 22 37 50 37 14 0 31 -5 38 -12z"/>
</g>
</svg>
